<?xml version="1.0" encoding="UTF-8" standalone="no"?>
<!DOCTYPE svg PUBLIC "-//W3C//DTD SVG 1.1//EN"
 "http://www.w3.org/Graphics/SVG/1.1/DTD/svg11.dtd">
<!-- Generated by graphviz version 2.40.1 (20161225.0304)
 -->
<!-- Title: ld::LeafAngleDistribution Pages: 1 -->
<svg width="516pt" height="165pt"
 viewBox="0.00 0.00 516.00 165.00" xmlns="http://www.w3.org/2000/svg" xmlns:xlink="http://www.w3.org/1999/xlink">
<g id="graph0" class="graph" transform="scale(1 1) rotate(0) translate(4 161)">
<title>ld::LeafAngleDistribution</title>
<polygon fill="#ffffff" stroke="transparent" points="-4,4 -4,-161 512,-161 512,4 -4,4"/>
<!-- Node0 -->
<g id="node1" class="node">
<title>Node0</title>
<polygon fill="#bfbfbf" stroke="#000000" points="0,-68.5 0,-87.5 123,-87.5 123,-68.5 0,-68.5"/>
<text text-anchor="middle" x="61.5" y="-75.5" font-family="Helvetica,sans-Serif" font-size="10.00" fill="#000000">ld::LeafAngleDistribution</text>
</g>
<!-- Node1 -->
<g id="node2" class="node">
<title>Node1</title>
<g id="a_node2"><a xlink:href="classld_1_1BeckmannLeafAngleDistribution.html" target="_top" xlink:title="Beckmann leaf angle distribution. ">
<polygon fill="#ffffff" stroke="#000000" points="159,-137.5 159,-156.5 329,-156.5 329,-137.5 159,-137.5"/>
<text text-anchor="middle" x="244" y="-144.5" font-family="Helvetica,sans-Serif" font-size="10.00" fill="#000000">ld::BeckmannLeafAngleDistribution</text>
</a>
</g>
</g>
<!-- Node0&#45;&gt;Node1 -->
<g id="edge1" class="edge">
<title>Node0&#45;&gt;Node1</title>
<path fill="none" stroke="#191970" d="M86.2829,-92.4984C105.5704,-103.2724 133.2921,-117.6626 159,-127 170.2568,-131.0886 182.6607,-134.5584 194.4316,-137.4019"/>
<polygon fill="#191970" stroke="#191970" points="87.9628,-89.4274 77.5378,-87.5378 84.509,-95.5161 87.9628,-89.4274"/>
</g>
<!-- Node2 -->
<g id="node3" class="node">
<title>Node2</title>
<g id="a_node3"><a xlink:href="classld_1_1IsotropicLidfLeafAngleDistribution.html" target="_top" xlink:title="Isotropic LIDF leaf angle distribution. ">
<polygon fill="#ffffff" stroke="#000000" points="180.5,-88 180.5,-118 307.5,-118 307.5,-88 180.5,-88"/>
<text text-anchor="start" x="188.5" y="-106" font-family="Helvetica,sans-Serif" font-size="10.00" fill="#000000">ld::IsotropicLidfLeafAngle</text>
<text text-anchor="middle" x="244" y="-95" font-family="Helvetica,sans-Serif" font-size="10.00" fill="#000000">Distribution</text>
</a>
</g>
</g>
<!-- Node0&#45;&gt;Node2 -->
<g id="edge2" class="edge">
<title>Node0&#45;&gt;Node2</title>
<path fill="none" stroke="#191970" d="M133.1164,-87.8105C148.6684,-89.9409 165.019,-92.1807 180.2434,-94.2662"/>
<polygon fill="#191970" stroke="#191970" points="133.4143,-84.3187 123.0317,-86.429 132.4642,-91.2539 133.4143,-84.3187"/>
</g>
<!-- Node5 -->
<g id="node6" class="node">
<title>Node5</title>
<g id="a_node6"><a xlink:href="classld_1_1TrowbridgeReitzLeafAngleDistribution.html" target="_top" xlink:title="Trowbridge&#45;Reitz (GGX) leaf angle distribution. ">
<polygon fill="#ffffff" stroke="#000000" points="171.5,-39 171.5,-69 316.5,-69 316.5,-39 171.5,-39"/>
<text text-anchor="start" x="179.5" y="-57" font-family="Helvetica,sans-Serif" font-size="10.00" fill="#000000">ld::TrowbridgeReitzLeafAngle</text>
<text text-anchor="middle" x="244" y="-46" font-family="Helvetica,sans-Serif" font-size="10.00" fill="#000000">Distribution</text>
</a>
</g>
</g>
<!-- Node0&#45;&gt;Node5 -->
<g id="edge5" class="edge">
<title>Node0&#45;&gt;Node5</title>
<path fill="none" stroke="#191970" d="M133.0066,-68.5964C145.6098,-66.939 158.7409,-65.2122 171.3744,-63.5508"/>
<polygon fill="#191970" stroke="#191970" points="132.49,-65.1341 123.0317,-69.9082 133.4028,-72.0743 132.49,-65.1341"/>
</g>
<!-- Node6 -->
<g id="node7" class="node">
<title>Node6</title>
<g id="a_node7"><a xlink:href="classld_1_1UniformLeafAngleDistribution.html" target="_top" xlink:title="Uniform leaf angle distribution. ">
<polygon fill="#ffffff" stroke="#000000" points="165,-.5 165,-19.5 323,-19.5 323,-.5 165,-.5"/>
<text text-anchor="middle" x="244" y="-7.5" font-family="Helvetica,sans-Serif" font-size="10.00" fill="#000000">ld::UniformLeafAngleDistribution</text>
</a>
</g>
</g>
<!-- Node0&#45;&gt;Node6 -->
<g id="edge6" class="edge">
<title>Node0&#45;&gt;Node6</title>
<path fill="none" stroke="#191970" d="M86.2534,-63.4196C105.5252,-52.6022 133.2403,-38.1936 159,-29 169.3962,-25.2896 180.7749,-22.1504 191.7306,-19.5582"/>
<polygon fill="#191970" stroke="#191970" points="84.4687,-60.4081 77.5164,-68.4029 87.9369,-66.4886 84.4687,-60.4081"/>
</g>
<!-- Node3 -->
<g id="node4" class="node">
<title>Node3</title>
<g id="a_node4"><a xlink:href="classld_1_1TrigonometricLeafAngleDistribution.html" target="_top" xlink:title="Trigonometric leaf angle distribution. ">
<polygon fill="#ffffff" stroke="#000000" points="370,-112 370,-142 503,-142 503,-112 370,-112"/>
<text text-anchor="start" x="378" y="-130" font-family="Helvetica,sans-Serif" font-size="10.00" fill="#000000">ld::TrigonometricLeafAngle</text>
<text text-anchor="middle" x="436.5" y="-119" font-family="Helvetica,sans-Serif" font-size="10.00" fill="#000000">Distribution</text>
</a>
</g>
</g>
<!-- Node2&#45;&gt;Node3 -->
<g id="edge3" class="edge">
<title>Node2&#45;&gt;Node3</title>
<path fill="none" stroke="#191970" d="M317.5288,-112.1672C334.6817,-114.3058 352.8556,-116.5716 369.6983,-118.6715"/>
<polygon fill="#191970" stroke="#191970" points="317.9214,-108.6892 307.5652,-110.925 317.0553,-115.6354 317.9214,-108.6892"/>
</g>
<!-- Node4 -->
<g id="node5" class="node">
<title>Node4</title>
<g id="a_node5"><a xlink:href="classld_1_1VerhoefBimodalLeafAngleDistribution.html" target="_top" xlink:title="Verhoef bimodal leaf angle distribution. ">
<polygon fill="#ffffff" stroke="#000000" points="365,-63 365,-93 508,-93 508,-63 365,-63"/>
<text text-anchor="start" x="373" y="-81" font-family="Helvetica,sans-Serif" font-size="10.00" fill="#000000">ld::VerhoefBimodalLeafAngle</text>
<text text-anchor="middle" x="436.5" y="-70" font-family="Helvetica,sans-Serif" font-size="10.00" fill="#000000">Distribution</text>
</a>
</g>
</g>
<!-- Node2&#45;&gt;Node4 -->
<g id="edge4" class="edge">
<title>Node2&#45;&gt;Node4</title>
<path fill="none" stroke="#191970" d="M317.579,-93.4443C333.0258,-91.4382 349.2986,-89.3249 364.68,-87.3273"/>
<polygon fill="#191970" stroke="#191970" points="317.0311,-89.986 307.5652,-94.7448 317.9327,-96.9277 317.0311,-89.986"/>
</g>
</g>
</svg>
