<?xml version="1.0" encoding="UTF-8" standalone="no"?>
<!DOCTYPE svg PUBLIC "-//W3C//DTD SVG 1.1//EN"
 "http://www.w3.org/Graphics/SVG/1.1/DTD/svg11.dtd">
<!-- Generated by graphviz version 2.40.1 (20161225.0304)
 -->
<!-- Title: ld::IsotropicLidfLeafAngleDistribution Pages: 1 -->
<svg width="302pt" height="162pt"
 viewBox="0.00 0.00 302.00 162.00" xmlns="http://www.w3.org/2000/svg" xmlns:xlink="http://www.w3.org/1999/xlink">
<g id="graph0" class="graph" transform="scale(1 1) rotate(0) translate(4 158)">
<title>ld::IsotropicLidfLeafAngleDistribution</title>
<polygon fill="#ffffff" stroke="transparent" points="-4,4 -4,-158 298,-158 298,4 -4,4"/>
<!-- Node0 -->
<g id="node1" class="node">
<title>Node0</title>
<polygon fill="#bfbfbf" stroke="#000000" points="81,-67.5 81,-97.5 208,-97.5 208,-67.5 81,-67.5"/>
<text text-anchor="start" x="89" y="-85.5" font-family="Helvetica,sans-Serif" font-size="10.00" fill="#000000">ld::IsotropicLidfLeafAngle</text>
<text text-anchor="middle" x="144.5" y="-74.5" font-family="Helvetica,sans-Serif" font-size="10.00" fill="#000000">Distribution</text>
</g>
<!-- Node2 -->
<g id="node3" class="node">
<title>Node2</title>
<g id="a_node3"><a xlink:href="classld_1_1TrigonometricLeafAngleDistribution.html" target="_top" xlink:title="Trigonometric leaf angle distribution. ">
<polygon fill="#ffffff" stroke="#000000" points="0,-.5 0,-30.5 133,-30.5 133,-.5 0,-.5"/>
<text text-anchor="start" x="8" y="-18.5" font-family="Helvetica,sans-Serif" font-size="10.00" fill="#000000">ld::TrigonometricLeafAngle</text>
<text text-anchor="middle" x="66.5" y="-7.5" font-family="Helvetica,sans-Serif" font-size="10.00" fill="#000000">Distribution</text>
</a>
</g>
</g>
<!-- Node0&#45;&gt;Node2 -->
<g id="edge2" class="edge">
<title>Node0&#45;&gt;Node2</title>
<path fill="none" stroke="#191970" d="M118.884,-60.4965C107.5016,-50.7193 94.3884,-39.4554 84.1294,-30.6432"/>
<polygon fill="#191970" stroke="#191970" points="116.9343,-63.4357 126.8006,-67.2967 121.4955,-58.1257 116.9343,-63.4357"/>
</g>
<!-- Node3 -->
<g id="node4" class="node">
<title>Node3</title>
<g id="a_node4"><a xlink:href="classld_1_1VerhoefBimodalLeafAngleDistribution.html" target="_top" xlink:title="Verhoef bimodal leaf angle distribution. ">
<polygon fill="#ffffff" stroke="#000000" points="151,-.5 151,-30.5 294,-30.5 294,-.5 151,-.5"/>
<text text-anchor="start" x="159" y="-18.5" font-family="Helvetica,sans-Serif" font-size="10.00" fill="#000000">ld::VerhoefBimodalLeafAngle</text>
<text text-anchor="middle" x="222.5" y="-7.5" font-family="Helvetica,sans-Serif" font-size="10.00" fill="#000000">Distribution</text>
</a>
</g>
</g>
<!-- Node0&#45;&gt;Node3 -->
<g id="edge3" class="edge">
<title>Node0&#45;&gt;Node3</title>
<path fill="none" stroke="#191970" d="M170.116,-60.4965C181.4984,-50.7193 194.6116,-39.4554 204.8706,-30.6432"/>
<polygon fill="#191970" stroke="#191970" points="167.5045,-58.1257 162.1994,-67.2967 172.0657,-63.4357 167.5045,-58.1257"/>
</g>
<!-- Node1 -->
<g id="node2" class="node">
<title>Node1</title>
<g id="a_node2"><a xlink:href="classld_1_1LeafAngleDistribution.html" target="_top" xlink:title="Leaf angle distribution. ">
<polygon fill="#ffffff" stroke="#000000" points="83,-134.5 83,-153.5 206,-153.5 206,-134.5 83,-134.5"/>
<text text-anchor="middle" x="144.5" y="-141.5" font-family="Helvetica,sans-Serif" font-size="10.00" fill="#000000">ld::LeafAngleDistribution</text>
</a>
</g>
</g>
<!-- Node1&#45;&gt;Node0 -->
<g id="edge1" class="edge">
<title>Node1&#45;&gt;Node0</title>
<path fill="none" stroke="#191970" d="M144.5,-124.3693C144.5,-115.681 144.5,-105.6241 144.5,-97.5446"/>
<polygon fill="#191970" stroke="#191970" points="141.0001,-124.3906 144.5,-134.3906 148.0001,-124.3907 141.0001,-124.3906"/>
</g>
</g>
</svg>
