<?xml version="1.0" encoding="UTF-8" standalone="no"?>
<!DOCTYPE svg PUBLIC "-//W3C//DTD SVG 1.1//EN"
 "http://www.w3.org/Graphics/SVG/1.1/DTD/svg11.dtd">
<!-- Generated by graphviz version 2.43.0 (0)
 -->
<!-- Title: ld::IsotropicLidfLeafAngleDistribution Pages: 1 -->
<svg width="334pt" height="162pt"
 viewBox="0.00 0.00 333.50 162.00" xmlns="http://www.w3.org/2000/svg" xmlns:xlink="http://www.w3.org/1999/xlink">
<g id="graph0" class="graph" transform="scale(1 1) rotate(0) translate(4 158)">
<title>ld::IsotropicLidfLeafAngleDistribution</title>
<polygon fill="white" stroke="transparent" points="-4,4 -4,-158 329.5,-158 329.5,4 -4,4"/>
<!-- Node1 -->
<g id="node1" class="node">
<title>Node1</title>
<g id="a_node1"><a xlink:title="Isotropic LIDF leaf angle distribution.">
<polygon fill="#bfbfbf" stroke="black" points="90,-67.5 90,-97.5 230,-97.5 230,-67.5 90,-67.5"/>
<text text-anchor="start" x="98" y="-85.5" font-family="Helvetica,sans-Serif" font-size="10.00">ld::IsotropicLidfLeafAngle</text>
<text text-anchor="middle" x="160" y="-74.5" font-family="Helvetica,sans-Serif" font-size="10.00">Distribution</text>
</a>
</g>
</g>
<!-- Node3 -->
<g id="node3" class="node">
<title>Node3</title>
<g id="a_node3"><a xlink:href="classld_1_1TrigonometricLeafAngleDistribution.html" target="_top" xlink:title="Trigonometric leaf angle distribution.">
<polygon fill="white" stroke="black" points="0,-0.5 0,-30.5 148,-30.5 148,-0.5 0,-0.5"/>
<text text-anchor="start" x="8" y="-18.5" font-family="Helvetica,sans-Serif" font-size="10.00">ld::TrigonometricLeafAngle</text>
<text text-anchor="middle" x="74" y="-7.5" font-family="Helvetica,sans-Serif" font-size="10.00">Distribution</text>
</a>
</g>
</g>
<!-- Node1&#45;&gt;Node3 -->
<g id="edge2" class="edge">
<title>Node1&#45;&gt;Node3</title>
<path fill="none" stroke="midnightblue" d="M133.1,-61.17C119.95,-51.23 104.45,-39.51 92.62,-30.58"/>
<polygon fill="midnightblue" stroke="midnightblue" points="131.25,-64.16 141.34,-67.4 135.47,-58.57 131.25,-64.16"/>
</g>
<!-- Node4 -->
<g id="node4" class="node">
<title>Node4</title>
<g id="a_node4"><a xlink:href="classld_1_1VerhoefBimodalLeafAngleDistribution.html" target="_top" xlink:title="Verhoef bimodal leaf angle distribution.">
<polygon fill="white" stroke="black" points="166.5,-0.5 166.5,-30.5 325.5,-30.5 325.5,-0.5 166.5,-0.5"/>
<text text-anchor="start" x="174.5" y="-18.5" font-family="Helvetica,sans-Serif" font-size="10.00">ld::VerhoefBimodalLeafAngle</text>
<text text-anchor="middle" x="246" y="-7.5" font-family="Helvetica,sans-Serif" font-size="10.00">Distribution</text>
</a>
</g>
</g>
<!-- Node1&#45;&gt;Node4 -->
<g id="edge3" class="edge">
<title>Node1&#45;&gt;Node4</title>
<path fill="none" stroke="midnightblue" d="M186.9,-61.17C200.05,-51.23 215.55,-39.51 227.38,-30.58"/>
<polygon fill="midnightblue" stroke="midnightblue" points="184.53,-58.57 178.66,-67.4 188.75,-64.16 184.53,-58.57"/>
</g>
<!-- Node2 -->
<g id="node2" class="node">
<title>Node2</title>
<g id="a_node2"><a xlink:href="classld_1_1LeafAngleDistribution.html" target="_top" xlink:title="Leaf angle distribution.">
<polygon fill="white" stroke="black" points="91.5,-134.5 91.5,-153.5 228.5,-153.5 228.5,-134.5 91.5,-134.5"/>
<text text-anchor="middle" x="160" y="-141.5" font-family="Helvetica,sans-Serif" font-size="10.00">ld::LeafAngleDistribution</text>
</a>
</g>
</g>
<!-- Node2&#45;&gt;Node1 -->
<g id="edge1" class="edge">
<title>Node2&#45;&gt;Node1</title>
<path fill="none" stroke="midnightblue" d="M160,-124.23C160,-115.59 160,-105.5 160,-97.52"/>
<polygon fill="midnightblue" stroke="midnightblue" points="156.5,-124.48 160,-134.48 163.5,-124.48 156.5,-124.48"/>
</g>
</g>
</svg>
