<?xml version="1.0" encoding="UTF-8" standalone="no"?>
<!DOCTYPE svg PUBLIC "-//W3C//DTD SVG 1.1//EN"
 "http://www.w3.org/Graphics/SVG/1.1/DTD/svg11.dtd">
<!-- Generated by graphviz version 2.43.0 (0)
 -->
<!-- Title: ld::VerhoefBimodalLeafAngleDistribution Pages: 1 -->
<svg width="167pt" height="162pt"
 viewBox="0.00 0.00 167.00 162.00" xmlns="http://www.w3.org/2000/svg" xmlns:xlink="http://www.w3.org/1999/xlink">
<g id="graph0" class="graph" transform="scale(1 1) rotate(0) translate(4 158)">
<title>ld::VerhoefBimodalLeafAngleDistribution</title>
<polygon fill="white" stroke="transparent" points="-4,4 -4,-158 163,-158 163,4 -4,4"/>
<!-- Node1 -->
<g id="node1" class="node">
<title>Node1</title>
<g id="a_node1"><a xlink:title="Verhoef bimodal leaf angle distribution.">
<polygon fill="#bfbfbf" stroke="black" points="0,-0.5 0,-30.5 159,-30.5 159,-0.5 0,-0.5"/>
<text text-anchor="start" x="8" y="-18.5" font-family="Helvetica,sans-Serif" font-size="10.00">ld::VerhoefBimodalLeafAngle</text>
<text text-anchor="middle" x="79.5" y="-7.5" font-family="Helvetica,sans-Serif" font-size="10.00">Distribution</text>
</a>
</g>
</g>
<!-- Node2 -->
<g id="node2" class="node">
<title>Node2</title>
<g id="a_node2"><a xlink:href="classld_1_1IsotropicLidfLeafAngleDistribution.html" target="_top" xlink:title="Isotropic LIDF leaf angle distribution.">
<polygon fill="white" stroke="black" points="9.5,-67.5 9.5,-97.5 149.5,-97.5 149.5,-67.5 9.5,-67.5"/>
<text text-anchor="start" x="17.5" y="-85.5" font-family="Helvetica,sans-Serif" font-size="10.00">ld::IsotropicLidfLeafAngle</text>
<text text-anchor="middle" x="79.5" y="-74.5" font-family="Helvetica,sans-Serif" font-size="10.00">Distribution</text>
</a>
</g>
</g>
<!-- Node2&#45;&gt;Node1 -->
<g id="edge1" class="edge">
<title>Node2&#45;&gt;Node1</title>
<path fill="none" stroke="midnightblue" d="M79.5,-57.11C79.5,-48.15 79.5,-38.32 79.5,-30.58"/>
<polygon fill="midnightblue" stroke="midnightblue" points="76,-57.4 79.5,-67.4 83,-57.4 76,-57.4"/>
</g>
<!-- Node3 -->
<g id="node3" class="node">
<title>Node3</title>
<g id="a_node3"><a xlink:href="classld_1_1LeafAngleDistribution.html" target="_top" xlink:title="Leaf angle distribution.">
<polygon fill="white" stroke="black" points="11,-134.5 11,-153.5 148,-153.5 148,-134.5 11,-134.5"/>
<text text-anchor="middle" x="79.5" y="-141.5" font-family="Helvetica,sans-Serif" font-size="10.00">ld::LeafAngleDistribution</text>
</a>
</g>
</g>
<!-- Node3&#45;&gt;Node2 -->
<g id="edge2" class="edge">
<title>Node3&#45;&gt;Node2</title>
<path fill="none" stroke="midnightblue" d="M79.5,-124.23C79.5,-115.59 79.5,-105.5 79.5,-97.52"/>
<polygon fill="midnightblue" stroke="midnightblue" points="76,-124.48 79.5,-134.48 83,-124.48 76,-124.48"/>
</g>
</g>
</svg>
