<?xml version="1.0" encoding="UTF-8" standalone="no"?>
<!DOCTYPE svg PUBLIC "-//W3C//DTD SVG 1.1//EN"
 "http://www.w3.org/Graphics/SVG/1.1/DTD/svg11.dtd">
<!-- Generated by graphviz version 2.43.0 (0)
 -->
<!-- Title: ld::LeafAngleDistribution Pages: 1 -->
<!--zoomable 165 -->
<svg id="main" version="1.1" xmlns="http://www.w3.org/2000/svg" xmlns:xlink="http://www.w3.org/1999/xlink" xml:space="preserve" onload="init(evt)">
<style type="text/css"><![CDATA[
.edge:hover path { stroke: red; }
.edge:hover polygon { stroke: red; fill: red; }
]]></style>
<script type="text/javascript"><![CDATA[
var edges = document.getElementsByTagName('g');
if (edges && edges.length) {
  for (var i=0;i<edges.length;i++) {
    if (edges[i].id.substr(0,4)=='edge') {
      edges[i].setAttribute('class','edge');
    }
  }
}
]]></script>
        <defs>
                <circle id="rim" cx="0" cy="0" r="7"/>
                <circle id="rim2" cx="0" cy="0" r="3.5"/>
                <g id="zoomPlus">
                        <use xlink:href="#rim" fill="#404040">
                                <set attributeName="fill" to="#808080" begin="zoomplus.mouseover" end="zoomplus.mouseout"/>
                        </use>
                        <path d="M-4,0h8M0,-4v8" fill="none" stroke="white" stroke-width="1.5" pointer-events="none"/>
                </g>
                <g id="zoomMin">
                        <use xlink:href="#rim" fill="#404040">
                                <set attributeName="fill" to="#808080" begin="zoomminus.mouseover" end="zoomminus.mouseout"/>
                        </use>
                        <path d="M-4,0h8" fill="none" stroke="white" stroke-width="1.5" pointer-events="none"/>
                </g>
                <g id="dirArrow">
                        <path fill="none" stroke="white" stroke-width="1.5" d="M0,-3.0v7 M-2.5,-0.5L0,-3.0L2.5,-0.5"/>
                </g>
               <g id="resetDef">
                       <use xlink:href="#rim2" fill="#404040">
                               <set attributeName="fill" to="#808080" begin="reset.mouseover" end="reset.mouseout"/>
                       </use>
               </g>
        </defs>

<script type="text/javascript">
var viewWidth = 565;
var viewHeight = 165;
var sectionId = 'dynsection-0';
</script>
<script xlink:href="svgpan.js"/>
<svg id="graph" class="graph">
<g id="viewport">
<title>ld::LeafAngleDistribution</title>
<polygon fill="white" stroke="transparent" points="-4,4 -4,-161 561,-161 561,4 -4,4"/>
<!-- Node1 -->
<g id="node1" class="node">
<title>Node1</title>
<g id="a_node1"><a xlink:title="Leaf angle distribution.">
<polygon fill="#bfbfbf" stroke="black" points="0,-68.5 0,-87.5 137,-87.5 137,-68.5 0,-68.5"/>
<text text-anchor="middle" x="68.5" y="-75.5" font-family="Helvetica,sans-Serif" font-size="10.00">ld::LeafAngleDistribution</text>
</a>
</g>
</g>
<!-- Node2 -->
<g id="node2" class="node">
<title>Node2</title>
<g id="a_node2"><a xlink:href="classld_1_1BeckmannLeafAngleDistribution.html" target="_top" xlink:title="Beckmann leaf angle distribution.">
<polygon fill="white" stroke="black" points="173,-137.5 173,-156.5 362,-156.5 362,-137.5 173,-137.5"/>
<text text-anchor="middle" x="267.5" y="-144.5" font-family="Helvetica,sans-Serif" font-size="10.00">ld::BeckmannLeafAngleDistribution</text>
</a>
</g>
</g>
<!-- Node1&#45;&gt;Node2 -->
<g id="edge1" class="edge">
<title>Node1&#45;&gt;Node2</title>
<path fill="none" stroke="midnightblue" d="M95.59,-92.43C116.1,-103.26 145.69,-117.75 173,-127 185.26,-131.15 198.73,-134.63 211.54,-137.46"/>
<polygon fill="midnightblue" stroke="midnightblue" points="97.03,-89.23 86.57,-87.59 93.73,-95.4 97.03,-89.23"/>
</g>
<!-- Node3 -->
<g id="node3" class="node">
<title>Node3</title>
<g id="a_node3"><a xlink:href="classld_1_1IsotropicLidfLeafAngleDistribution.html" target="_top" xlink:title="Isotropic LIDF leaf angle distribution.">
<polygon fill="white" stroke="black" points="197.5,-88 197.5,-118 337.5,-118 337.5,-88 197.5,-88"/>
<text text-anchor="start" x="205.5" y="-106" font-family="Helvetica,sans-Serif" font-size="10.00">ld::IsotropicLidfLeafAngle</text>
<text text-anchor="middle" x="267.5" y="-95" font-family="Helvetica,sans-Serif" font-size="10.00">Distribution</text>
</a>
</g>
</g>
<!-- Node1&#45;&gt;Node3 -->
<g id="edge2" class="edge">
<title>Node1&#45;&gt;Node3</title>
<path fill="none" stroke="midnightblue" d="M147.21,-87.86C163.78,-89.96 181.17,-92.17 197.39,-94.23"/>
<polygon fill="midnightblue" stroke="midnightblue" points="147.38,-84.36 137.02,-86.57 146.5,-91.3 147.38,-84.36"/>
</g>
<!-- Node6 -->
<g id="node6" class="node">
<title>Node6</title>
<g id="a_node6"><a xlink:href="classld_1_1TrowbridgeReitzLeafAngleDistribution.html" target="_top" xlink:title="Trowbridge&#45;Reitz (GGX) leaf angle distribution.">
<polygon fill="white" stroke="black" points="188.5,-39 188.5,-69 346.5,-69 346.5,-39 188.5,-39"/>
<text text-anchor="start" x="196.5" y="-57" font-family="Helvetica,sans-Serif" font-size="10.00">ld::TrowbridgeReitzLeafAngle</text>
<text text-anchor="middle" x="267.5" y="-46" font-family="Helvetica,sans-Serif" font-size="10.00">Distribution</text>
</a>
</g>
</g>
<!-- Node1&#45;&gt;Node6 -->
<g id="edge5" class="edge">
<title>Node1&#45;&gt;Node6</title>
<path fill="none" stroke="midnightblue" d="M147.21,-68.53C160.69,-66.89 174.72,-65.18 188.22,-63.54"/>
<polygon fill="midnightblue" stroke="midnightblue" points="146.52,-65.09 137.02,-69.77 147.37,-72.04 146.52,-65.09"/>
</g>
<!-- Node7 -->
<g id="node7" class="node">
<title>Node7</title>
<g id="a_node7"><a xlink:href="classld_1_1UniformLeafAngleDistribution.html" target="_top" xlink:title="Uniform leaf angle distribution.">
<polygon fill="white" stroke="black" points="179,-0.5 179,-19.5 356,-19.5 356,-0.5 179,-0.5"/>
<text text-anchor="middle" x="267.5" y="-7.5" font-family="Helvetica,sans-Serif" font-size="10.00">ld::UniformLeafAngleDistribution</text>
</a>
</g>
</g>
<!-- Node1&#45;&gt;Node7 -->
<g id="edge6" class="edge">
<title>Node1&#45;&gt;Node7</title>
<path fill="none" stroke="midnightblue" d="M95.56,-63.49C116.06,-52.62 145.64,-38.11 173,-29 184.16,-25.29 196.32,-22.17 208.07,-19.61"/>
<polygon fill="midnightblue" stroke="midnightblue" points="93.69,-60.53 86.55,-68.35 97.01,-66.69 93.69,-60.53"/>
</g>
<!-- Node4 -->
<g id="node4" class="node">
<title>Node4</title>
<g id="a_node4"><a xlink:href="classld_1_1TrigonometricLeafAngleDistribution.html" target="_top" xlink:title="Trigonometric leaf angle distribution.">
<polygon fill="white" stroke="black" points="403.5,-112 403.5,-142 551.5,-142 551.5,-112 403.5,-112"/>
<text text-anchor="start" x="411.5" y="-130" font-family="Helvetica,sans-Serif" font-size="10.00">ld::TrigonometricLeafAngle</text>
<text text-anchor="middle" x="477.5" y="-119" font-family="Helvetica,sans-Serif" font-size="10.00">Distribution</text>
</a>
</g>
</g>
<!-- Node3&#45;&gt;Node4 -->
<g id="edge3" class="edge">
<title>Node3&#45;&gt;Node4</title>
<path fill="none" stroke="midnightblue" d="M347.76,-112.15C365.99,-114.25 385.3,-116.48 403.26,-118.55"/>
<polygon fill="midnightblue" stroke="midnightblue" points="348.1,-108.66 337.76,-110.99 347.29,-115.61 348.1,-108.66"/>
</g>
<!-- Node5 -->
<g id="node5" class="node">
<title>Node5</title>
<g id="a_node5"><a xlink:href="classld_1_1VerhoefBimodalLeafAngleDistribution.html" target="_top" xlink:title="Verhoef bimodal leaf angle distribution.">
<polygon fill="white" stroke="black" points="398,-63 398,-93 557,-93 557,-63 398,-63"/>
<text text-anchor="start" x="406" y="-81" font-family="Helvetica,sans-Serif" font-size="10.00">ld::VerhoefBimodalLeafAngle</text>
<text text-anchor="middle" x="477.5" y="-70" font-family="Helvetica,sans-Serif" font-size="10.00">Distribution</text>
</a>
</g>
</g>
<!-- Node3&#45;&gt;Node5 -->
<g id="edge4" class="edge">
<title>Node3&#45;&gt;Node5</title>
<path fill="none" stroke="midnightblue" d="M347.84,-93.46C364.22,-91.49 381.48,-89.42 397.84,-87.45"/>
<polygon fill="midnightblue" stroke="midnightblue" points="347.27,-90.01 337.76,-94.68 348.11,-96.96 347.27,-90.01"/>
</g>
</g>
</svg>
        <g id="navigator" transform="translate(0 0)" fill="#404254">
                <rect fill="#f2f5e9" fill-opacity="0.5" stroke="#606060" stroke-width=".5" x="0" y="0" width="60" height="60"/>
                <use id="zoomplus" xlink:href="#zoomPlus" x="17" y="9" onmousedown="handleZoom(evt,'in')"/>
                <use id="zoomminus" xlink:href="#zoomMin" x="42" y="9" onmousedown="handleZoom(evt,'out')"/>
                <use id="reset" xlink:href="#resetDef" x="30" y="36" onmousedown="handleReset()"/>
                <g id="arrowUp" xlink:href="#dirArrow" transform="translate(30 24)" onmousedown="handlePan(0,-1)">
                  <use xlink:href="#rim" fill="#404040">
                        <set attributeName="fill" to="#808080" begin="arrowUp.mouseover" end="arrowUp.mouseout"/>
                  </use>
                  <path fill="none" stroke="white" stroke-width="1.5" d="M0,-3.0v7 M-2.5,-0.5L0,-3.0L2.5,-0.5"/>
                </g>
                <g id="arrowRight" xlink:href="#dirArrow" transform="rotate(90) translate(36 -43)" onmousedown="handlePan(1,0)">
                  <use xlink:href="#rim" fill="#404040">
                        <set attributeName="fill" to="#808080" begin="arrowRight.mouseover" end="arrowRight.mouseout"/>
                  </use>
                  <path fill="none" stroke="white" stroke-width="1.5" d="M0,-3.0v7 M-2.5,-0.5L0,-3.0L2.5,-0.5"/>
                </g>
                <g id="arrowDown" xlink:href="#dirArrow" transform="rotate(180) translate(-30 -48)" onmousedown="handlePan(0,1)">
                  <use xlink:href="#rim" fill="#404040">
                        <set attributeName="fill" to="#808080" begin="arrowDown.mouseover" end="arrowDown.mouseout"/>
                  </use>
                  <path fill="none" stroke="white" stroke-width="1.5" d="M0,-3.0v7 M-2.5,-0.5L0,-3.0L2.5,-0.5"/>
                </g>
                <g id="arrowLeft" xlink:href="#dirArrow" transform="rotate(270) translate(-36 17)" onmousedown="handlePan(-1,0)">
                  <use xlink:href="#rim" fill="#404040">
                        <set attributeName="fill" to="#808080" begin="arrowLeft.mouseover" end="arrowLeft.mouseout"/>
                  </use>
                  <path fill="none" stroke="white" stroke-width="1.5" d="M0,-3.0v7 M-2.5,-0.5L0,-3.0L2.5,-0.5"/>
                </g>
        </g>
        <svg viewBox="0 0 15 15" width="100%" height="30px" preserveAspectRatio="xMaxYMin meet">
         <g id="arrow_out" transform="scale(0.3 0.3)">
          <a xlink:href="classld_1_1LeafAngleDistribution__inherit__graph_org.svg" target="_base">
           <rect id="button" ry="5" rx="5" y="6" x="6" height="38" width="38"
                fill="#f2f5e9" fill-opacity="0.5" stroke="#606060" stroke-width="1.0"/>
           <path id="arrow"
             d="M 11.500037,31.436501 C 11.940474,20.09759 22.043105,11.32322 32.158766,21.979434 L 37.068811,17.246167 C 37.068811,17.246167 37.088388,32 37.088388,32 L 22.160133,31.978069 C 22.160133,31.978069 26.997745,27.140456 26.997745,27.140456 C 18.528582,18.264221 13.291696,25.230495 11.500037,31.436501 z"
             style="fill:#404040;"/>
          </a>
         </g>
        </svg>
</svg>
