<?xml version="1.0" encoding="UTF-8" standalone="no"?>
<!DOCTYPE svg PUBLIC "-//W3C//DTD SVG 1.1//EN"
 "http://www.w3.org/Graphics/SVG/1.1/DTD/svg11.dtd">
<!-- Generated by graphviz version 2.40.1 (20161225.0304)
 -->
<!-- Title: ld::LeafAngleDistribution Pages: 1 -->
<svg width="393pt" height="162pt"
 viewBox="0.00 0.00 392.50 162.00" xmlns="http://www.w3.org/2000/svg" xmlns:xlink="http://www.w3.org/1999/xlink">
<g id="graph0" class="graph" transform="scale(1 1) rotate(0) translate(4 158)">
<title>ld::LeafAngleDistribution</title>
<polygon fill="#ffffff" stroke="transparent" points="-4,4 -4,-158 388.5,-158 388.5,4 -4,4"/>
<!-- Node0 -->
<g id="node1" class="node">
<title>Node0</title>
<polygon fill="#bfbfbf" stroke="#000000" points="163,-134.5 163,-153.5 286,-153.5 286,-134.5 163,-134.5"/>
<text text-anchor="middle" x="224.5" y="-141.5" font-family="Helvetica,sans-Serif" font-size="10.00" fill="#000000">ld::LeafAngleDistribution</text>
</g>
<!-- Node1 -->
<g id="node2" class="node">
<title>Node1</title>
<g id="a_node2"><a xlink:href="classld_1_1IsotropicLidfLeafAngleDistribution.html" target="_top" xlink:title="Isotropic LIDF leaf angle distribution. ">
<polygon fill="#ffffff" stroke="#000000" points="81,-67.5 81,-97.5 208,-97.5 208,-67.5 81,-67.5"/>
<text text-anchor="start" x="89" y="-85.5" font-family="Helvetica,sans-Serif" font-size="10.00" fill="#000000">ld::IsotropicLidfLeafAngle</text>
<text text-anchor="middle" x="144.5" y="-74.5" font-family="Helvetica,sans-Serif" font-size="10.00" fill="#000000">Distribution</text>
</a>
</g>
</g>
<!-- Node0&#45;&gt;Node1 -->
<g id="edge1" class="edge">
<title>Node0&#45;&gt;Node1</title>
<path fill="none" stroke="#191970" d="M203.737,-128.0385C191.4952,-118.6276 176.0982,-106.7911 164.0702,-97.5446"/>
<polygon fill="#191970" stroke="#191970" points="201.9387,-131.0707 212,-134.3906 206.2051,-125.521 201.9387,-131.0707"/>
</g>
<!-- Node4 -->
<g id="node5" class="node">
<title>Node4</title>
<g id="a_node5"><a xlink:href="classld_1_1UniformLeafAngleDistribution.html" target="_top" xlink:title="Uniform leaf angle distribution. ">
<polygon fill="#ffffff" stroke="#000000" points="226.5,-73 226.5,-92 384.5,-92 384.5,-73 226.5,-73"/>
<text text-anchor="middle" x="305.5" y="-80" font-family="Helvetica,sans-Serif" font-size="10.00" fill="#000000">ld::UniformLeafAngleDistribution</text>
</a>
</g>
</g>
<!-- Node0&#45;&gt;Node4 -->
<g id="edge4" class="edge">
<title>Node0&#45;&gt;Node4</title>
<path fill="none" stroke="#191970" d="M245.3768,-128.1491C260.4271,-116.722 280.2452,-101.6749 292.9326,-92.0419"/>
<polygon fill="#191970" stroke="#191970" points="243.0042,-125.5559 237.1563,-134.3906 247.2372,-131.1311 243.0042,-125.5559"/>
</g>
<!-- Node2 -->
<g id="node3" class="node">
<title>Node2</title>
<g id="a_node3"><a xlink:href="classld_1_1TrigonometricLeafAngleDistribution.html" target="_top" xlink:title="Trigonometric leaf angle distribution. ">
<polygon fill="#ffffff" stroke="#000000" points="0,-.5 0,-30.5 133,-30.5 133,-.5 0,-.5"/>
<text text-anchor="start" x="8" y="-18.5" font-family="Helvetica,sans-Serif" font-size="10.00" fill="#000000">ld::TrigonometricLeafAngle</text>
<text text-anchor="middle" x="66.5" y="-7.5" font-family="Helvetica,sans-Serif" font-size="10.00" fill="#000000">Distribution</text>
</a>
</g>
</g>
<!-- Node1&#45;&gt;Node2 -->
<g id="edge2" class="edge">
<title>Node1&#45;&gt;Node2</title>
<path fill="none" stroke="#191970" d="M118.884,-60.4965C107.5016,-50.7193 94.3884,-39.4554 84.1294,-30.6432"/>
<polygon fill="#191970" stroke="#191970" points="116.9343,-63.4357 126.8006,-67.2967 121.4955,-58.1257 116.9343,-63.4357"/>
</g>
<!-- Node3 -->
<g id="node4" class="node">
<title>Node3</title>
<g id="a_node4"><a xlink:href="classld_1_1VerhoefBimodalLeafAngleDistribution.html" target="_top" xlink:title="Verhoef bimodal leaf angle distribution. ">
<polygon fill="#ffffff" stroke="#000000" points="151,-.5 151,-30.5 294,-30.5 294,-.5 151,-.5"/>
<text text-anchor="start" x="159" y="-18.5" font-family="Helvetica,sans-Serif" font-size="10.00" fill="#000000">ld::VerhoefBimodalLeafAngle</text>
<text text-anchor="middle" x="222.5" y="-7.5" font-family="Helvetica,sans-Serif" font-size="10.00" fill="#000000">Distribution</text>
</a>
</g>
</g>
<!-- Node1&#45;&gt;Node3 -->
<g id="edge3" class="edge">
<title>Node1&#45;&gt;Node3</title>
<path fill="none" stroke="#191970" d="M170.116,-60.4965C181.4984,-50.7193 194.6116,-39.4554 204.8706,-30.6432"/>
<polygon fill="#191970" stroke="#191970" points="167.5045,-58.1257 162.1994,-67.2967 172.0657,-63.4357 167.5045,-58.1257"/>
</g>
</g>
</svg>
