<?xml version="1.0" encoding="UTF-8" standalone="no"?>
<!DOCTYPE svg PUBLIC "-//W3C//DTD SVG 1.1//EN"
 "http://www.w3.org/Graphics/SVG/1.1/DTD/svg11.dtd">
<!-- Generated by graphviz version 2.43.0 (0)
 -->
<!-- Title: Graphical Class Hierarchy Pages: 1 -->
<svg width="565pt" height="165pt"
 viewBox="0.00 0.00 565.00 165.00" xmlns="http://www.w3.org/2000/svg" xmlns:xlink="http://www.w3.org/1999/xlink">
<g id="graph0" class="graph" transform="scale(1 1) rotate(0) translate(4 161)">
<title>Graphical Class Hierarchy</title>
<polygon fill="white" stroke="transparent" points="-4,4 -4,-161 561,-161 561,4 -4,4"/>
<!-- Node0 -->
<g id="node1" class="node">
<title>Node0</title>
<g id="a_node1"><a xlink:href="classld_1_1LeafAngleDistribution.html" target="_top" xlink:title="Leaf angle distribution.">
<polygon fill="white" stroke="black" points="0,-68.5 0,-87.5 137,-87.5 137,-68.5 0,-68.5"/>
<text text-anchor="middle" x="68.5" y="-75.5" font-family="Helvetica,sans-Serif" font-size="10.00">ld::LeafAngleDistribution</text>
</a>
</g>
</g>
<!-- Node1 -->
<g id="node2" class="node">
<title>Node1</title>
<g id="a_node2"><a xlink:href="classld_1_1BeckmannLeafAngleDistribution.html" target="_top" xlink:title="Beckmann leaf angle distribution.">
<polygon fill="white" stroke="black" points="173,-137.5 173,-156.5 362,-156.5 362,-137.5 173,-137.5"/>
<text text-anchor="middle" x="267.5" y="-144.5" font-family="Helvetica,sans-Serif" font-size="10.00">ld::BeckmannLeafAngleDistribution</text>
</a>
</g>
</g>
<!-- Node0&#45;&gt;Node1 -->
<g id="edge1" class="edge">
<title>Node0&#45;&gt;Node1</title>
<path fill="none" stroke="midnightblue" d="M95.59,-92.43C116.1,-103.26 145.69,-117.75 173,-127 185.26,-131.15 198.73,-134.63 211.54,-137.46"/>
<polygon fill="midnightblue" stroke="midnightblue" points="97.03,-89.23 86.57,-87.59 93.73,-95.4 97.03,-89.23"/>
</g>
<!-- Node2 -->
<g id="node3" class="node">
<title>Node2</title>
<g id="a_node3"><a xlink:href="classld_1_1IsotropicLidfLeafAngleDistribution.html" target="_top" xlink:title="Isotropic LIDF leaf angle distribution.">
<polygon fill="white" stroke="black" points="197.5,-88 197.5,-118 337.5,-118 337.5,-88 197.5,-88"/>
<text text-anchor="start" x="205.5" y="-106" font-family="Helvetica,sans-Serif" font-size="10.00">ld::IsotropicLidfLeafAngle</text>
<text text-anchor="middle" x="267.5" y="-95" font-family="Helvetica,sans-Serif" font-size="10.00">Distribution</text>
</a>
</g>
</g>
<!-- Node0&#45;&gt;Node2 -->
<g id="edge2" class="edge">
<title>Node0&#45;&gt;Node2</title>
<path fill="none" stroke="midnightblue" d="M147.21,-87.86C163.78,-89.96 181.17,-92.17 197.39,-94.23"/>
<polygon fill="midnightblue" stroke="midnightblue" points="147.38,-84.36 137.02,-86.57 146.5,-91.3 147.38,-84.36"/>
</g>
<!-- Node5 -->
<g id="node6" class="node">
<title>Node5</title>
<g id="a_node6"><a xlink:href="classld_1_1TrowbridgeReitzLeafAngleDistribution.html" target="_top" xlink:title="Trowbridge&#45;Reitz (GGX) leaf angle distribution.">
<polygon fill="white" stroke="black" points="188.5,-39 188.5,-69 346.5,-69 346.5,-39 188.5,-39"/>
<text text-anchor="start" x="196.5" y="-57" font-family="Helvetica,sans-Serif" font-size="10.00">ld::TrowbridgeReitzLeafAngle</text>
<text text-anchor="middle" x="267.5" y="-46" font-family="Helvetica,sans-Serif" font-size="10.00">Distribution</text>
</a>
</g>
</g>
<!-- Node0&#45;&gt;Node5 -->
<g id="edge5" class="edge">
<title>Node0&#45;&gt;Node5</title>
<path fill="none" stroke="midnightblue" d="M147.21,-68.53C160.69,-66.89 174.72,-65.18 188.22,-63.54"/>
<polygon fill="midnightblue" stroke="midnightblue" points="146.52,-65.09 137.02,-69.77 147.37,-72.04 146.52,-65.09"/>
</g>
<!-- Node6 -->
<g id="node7" class="node">
<title>Node6</title>
<g id="a_node7"><a xlink:href="classld_1_1UniformLeafAngleDistribution.html" target="_top" xlink:title="Uniform leaf angle distribution.">
<polygon fill="white" stroke="black" points="179,-0.5 179,-19.5 356,-19.5 356,-0.5 179,-0.5"/>
<text text-anchor="middle" x="267.5" y="-7.5" font-family="Helvetica,sans-Serif" font-size="10.00">ld::UniformLeafAngleDistribution</text>
</a>
</g>
</g>
<!-- Node0&#45;&gt;Node6 -->
<g id="edge6" class="edge">
<title>Node0&#45;&gt;Node6</title>
<path fill="none" stroke="midnightblue" d="M95.56,-63.49C116.06,-52.62 145.64,-38.11 173,-29 184.16,-25.29 196.32,-22.17 208.07,-19.61"/>
<polygon fill="midnightblue" stroke="midnightblue" points="93.69,-60.53 86.55,-68.35 97.01,-66.69 93.69,-60.53"/>
</g>
<!-- Node3 -->
<g id="node4" class="node">
<title>Node3</title>
<g id="a_node4"><a xlink:href="classld_1_1TrigonometricLeafAngleDistribution.html" target="_top" xlink:title="Trigonometric leaf angle distribution.">
<polygon fill="white" stroke="black" points="403.5,-112 403.5,-142 551.5,-142 551.5,-112 403.5,-112"/>
<text text-anchor="start" x="411.5" y="-130" font-family="Helvetica,sans-Serif" font-size="10.00">ld::TrigonometricLeafAngle</text>
<text text-anchor="middle" x="477.5" y="-119" font-family="Helvetica,sans-Serif" font-size="10.00">Distribution</text>
</a>
</g>
</g>
<!-- Node2&#45;&gt;Node3 -->
<g id="edge3" class="edge">
<title>Node2&#45;&gt;Node3</title>
<path fill="none" stroke="midnightblue" d="M347.76,-112.15C365.99,-114.25 385.3,-116.48 403.26,-118.55"/>
<polygon fill="midnightblue" stroke="midnightblue" points="348.1,-108.66 337.76,-110.99 347.29,-115.61 348.1,-108.66"/>
</g>
<!-- Node4 -->
<g id="node5" class="node">
<title>Node4</title>
<g id="a_node5"><a xlink:href="classld_1_1VerhoefBimodalLeafAngleDistribution.html" target="_top" xlink:title="Verhoef bimodal leaf angle distribution.">
<polygon fill="white" stroke="black" points="398,-63 398,-93 557,-93 557,-63 398,-63"/>
<text text-anchor="start" x="406" y="-81" font-family="Helvetica,sans-Serif" font-size="10.00">ld::VerhoefBimodalLeafAngle</text>
<text text-anchor="middle" x="477.5" y="-70" font-family="Helvetica,sans-Serif" font-size="10.00">Distribution</text>
</a>
</g>
</g>
<!-- Node2&#45;&gt;Node4 -->
<g id="edge4" class="edge">
<title>Node2&#45;&gt;Node4</title>
<path fill="none" stroke="midnightblue" d="M347.84,-93.46C364.22,-91.49 381.48,-89.42 397.84,-87.45"/>
<polygon fill="midnightblue" stroke="midnightblue" points="347.27,-90.01 337.76,-94.68 348.11,-96.96 347.27,-90.01"/>
</g>
</g>
</svg>
