<?xml version="1.0" encoding="UTF-8" standalone="no"?>
<!DOCTYPE svg PUBLIC "-//W3C//DTD SVG 1.1//EN"
 "http://www.w3.org/Graphics/SVG/1.1/DTD/svg11.dtd">
<!-- Generated by graphviz version 2.40.1 (20161225.0304)
 -->
<!-- Title: Graphical Class Hierarchy Pages: 1 -->
<svg width="504pt" height="103pt"
 viewBox="0.00 0.00 504.00 102.50" xmlns="http://www.w3.org/2000/svg" xmlns:xlink="http://www.w3.org/1999/xlink">
<g id="graph0" class="graph" transform="scale(1 1) rotate(0) translate(4 98.5)">
<title>Graphical Class Hierarchy</title>
<polygon fill="#ffffff" stroke="transparent" points="-4,4 -4,-98.5 500,-98.5 500,4 -4,4"/>
<!-- Node0 -->
<g id="node1" class="node">
<title>Node0</title>
<g id="a_node1"><a xlink:href="classld_1_1LeafAngleDistribution.html" target="_top" xlink:title="Leaf angle distribution. ">
<polygon fill="#ffffff" stroke="#000000" points="0,-22.5 0,-41.5 123,-41.5 123,-22.5 0,-22.5"/>
<text text-anchor="middle" x="61.5" y="-29.5" font-family="Helvetica,sans-Serif" font-size="10.00" fill="#000000">ld::LeafAngleDistribution</text>
</a>
</g>
</g>
<!-- Node1 -->
<g id="node2" class="node">
<title>Node1</title>
<g id="a_node2"><a xlink:href="classld_1_1IsotropicLidfLeafAngleDistribution.html" target="_top" xlink:title="Isotropic LIDF leaf angle distribution. ">
<polygon fill="#ffffff" stroke="#000000" points="174.5,-39 174.5,-69 301.5,-69 301.5,-39 174.5,-39"/>
<text text-anchor="start" x="182.5" y="-57" font-family="Helvetica,sans-Serif" font-size="10.00" fill="#000000">ld::IsotropicLidfLeafAngle</text>
<text text-anchor="middle" x="238" y="-46" font-family="Helvetica,sans-Serif" font-size="10.00" fill="#000000">Distribution</text>
</a>
</g>
</g>
<!-- Node0&#45;&gt;Node1 -->
<g id="edge1" class="edge">
<title>Node0&#45;&gt;Node1</title>
<path fill="none" stroke="#191970" d="M133.4339,-40.9663C146.9392,-42.6496 160.9728,-44.3989 174.2093,-46.0487"/>
<polygon fill="#191970" stroke="#191970" points="133.5873,-37.4584 123.2311,-39.6945 132.7214,-44.4046 133.5873,-37.4584"/>
</g>
<!-- Node4 -->
<g id="node5" class="node">
<title>Node4</title>
<g id="a_node5"><a xlink:href="classld_1_1UniformLeafAngleDistribution.html" target="_top" xlink:title="Uniform leaf angle distribution. ">
<polygon fill="#ffffff" stroke="#000000" points="159,-.5 159,-19.5 317,-19.5 317,-.5 159,-.5"/>
<text text-anchor="middle" x="238" y="-7.5" font-family="Helvetica,sans-Serif" font-size="10.00" fill="#000000">ld::UniformLeafAngleDistribution</text>
</a>
</g>
</g>
<!-- Node0&#45;&gt;Node4 -->
<g id="edge4" class="edge">
<title>Node0&#45;&gt;Node4</title>
<path fill="none" stroke="#191970" d="M133.2759,-23.0534C142.6452,-21.8856 152.2712,-20.6857 161.7112,-19.5091"/>
<polygon fill="#191970" stroke="#191970" points="132.7214,-19.5954 123.2311,-24.3055 133.5873,-26.5416 132.7214,-19.5954"/>
</g>
<!-- Node2 -->
<g id="node3" class="node">
<title>Node2</title>
<g id="a_node3"><a xlink:href="classld_1_1TrigonometricLeafAngleDistribution.html" target="_top" xlink:title="Trigonometric leaf angle distribution. ">
<polygon fill="#ffffff" stroke="#000000" points="358,-64 358,-94 491,-94 491,-64 358,-64"/>
<text text-anchor="start" x="366" y="-82" font-family="Helvetica,sans-Serif" font-size="10.00" fill="#000000">ld::TrigonometricLeafAngle</text>
<text text-anchor="middle" x="424.5" y="-71" font-family="Helvetica,sans-Serif" font-size="10.00" fill="#000000">Distribution</text>
</a>
</g>
</g>
<!-- Node1&#45;&gt;Node2 -->
<g id="edge2" class="edge">
<title>Node1&#45;&gt;Node2</title>
<path fill="none" stroke="#191970" d="M311.5882,-63.8644C326.8847,-65.9148 342.9207,-68.0644 357.9467,-70.0787"/>
<polygon fill="#191970" stroke="#191970" points="312.0375,-60.3934 301.6611,-62.5337 311.1074,-67.3313 312.0375,-60.3934"/>
</g>
<!-- Node3 -->
<g id="node4" class="node">
<title>Node3</title>
<g id="a_node4"><a xlink:href="classld_1_1VerhoefBimodalLeafAngleDistribution.html" target="_top" xlink:title="Verhoef bimodal leaf angle distribution. ">
<polygon fill="#ffffff" stroke="#000000" points="353,-15 353,-45 496,-45 496,-15 353,-15"/>
<text text-anchor="start" x="361" y="-33" font-family="Helvetica,sans-Serif" font-size="10.00" fill="#000000">ld::VerhoefBimodalLeafAngle</text>
<text text-anchor="middle" x="424.5" y="-22" font-family="Helvetica,sans-Serif" font-size="10.00" fill="#000000">Distribution</text>
</a>
</g>
</g>
<!-- Node1&#45;&gt;Node3 -->
<g id="edge3" class="edge">
<title>Node1&#45;&gt;Node3</title>
<path fill="none" stroke="#191970" d="M311.8424,-44.4975C325.3268,-42.7622 339.3776,-40.9541 352.7985,-39.227"/>
<polygon fill="#191970" stroke="#191970" points="311.1326,-41.0599 301.6611,-45.8077 312.0261,-48.0026 311.1326,-41.0599"/>
</g>
</g>
</svg>
